HIERARCHY
ROOT torso
{
OFFSET 0.00 0.00 0.00
CHANNELS 3 Xposition Yposition Zposition
JOINT left_hip
{
OFFSET 0.05 0.25 0.1
CHANNELS 3 Zrotation Xrotation Yrotation
JOINT left_knee
{
OFFSET 0.01 0.37 0.09
CHANNELS 3 Zrotation Xrotation Yrotation
JOINT left_foot
{
OFFSET 0.12 0.4 0.11
CHANNELS 3 Zrotation Xrotation Yrotation
End Site
{
OFFSET 0.00 0.00 0.00
}
}
}
}
JOINT neck
{
OFFSET 0.01 -0.23 -0.08
CHANNELS 3 Zrotation Xrotation Yrotation
JOINT head
{
OFFSET 0.03 -0.15 -0.2
CHANNELS 3 Zrotation Xrotation Yrotation
End Site
{
OFFSET 0.00 0.00 0.00
}
}
JOINT left_shoulder
{
OFFSET 0.13 -0.01 0.09
CHANNELS 3 Zrotation Xrotation Yrotation
JOINT left_elbow
{
OFFSET -0.01 0.2 0.02
CHANNELS 3 Zrotation Xrotation Yrotation
JOINT left_wrist
{
OFFSET 0.07 0.14 -0.12
CHANNELS 3 Zrotation Xrotation Yrotation
End Site
{
OFFSET 0.00 0.00 0.00
}
}
}
}
JOINT right_shoulder
{
OFFSET -0.13 0.01 -0.09
CHANNELS 3 Zrotation Xrotation Yrotation
JOINT right_elbow
{
OFFSET 0.08 0.25 -0.0
CHANNELS 3 Zrotation Xrotation Yrotation
JOINT right_wrist
{
OFFSET 0.18 0.09 -0.02
CHANNELS 3 Zrotation Xrotation Yrotation
End Site
{
OFFSET 0.00 0.00 0.00
}
}
}
}
}
JOINT right_hip
{
OFFSET -0.15 0.25 -0.01
CHANNELS 3 Zrotation Xrotation Yrotation
JOINT right_knee
{
OFFSET 0.02 0.39 0.14
CHANNELS 3 Zrotation Xrotation Yrotation
JOINT right_foot
{
OFFSET 0.02 0.44 0.11
CHANNELS 3 Zrotation Xrotation Yrotation
End Site
{
OFFSET 0.00 0.00 0.00
}
}
}
}
}
MOTION
Frames: 17
Frame Time: 0.033357348703170024
0.0 0.0 0.0 29.79 13.15 67.81 14.81 23.39 31.42 14.42 19.03 36.71 -171.28 -170.37 -137.88 -152.22 -132.92 -153.9 76.52 -80.64 145.48 -36.36 16.68 -67.86 -127.75 127.23 -44.46 -103.48 99.36 -34.52 -10.65 17.71 -30.47 -128.69 -127.84 -135.87 -11.85 36.25 -15.97 3.42 17.26 10.88 -2.84 13.83 -11.39 
0.0 0.0 0.0 28.75 13.59 66.22 14.55 22.98 31.47 14.29 19.02 36.47 -171.45 -170.61 -137.75 -148.86 -135.79 -148.16 79.93 -82.26 142.57 -36.73 15.81 -69.23 -127.73 127.31 -44.56 -100.07 97.74 -37.43 -11.88 7.67 -57.36 -127.22 -118.84 -144.07 -13.59 35.13 -18.96 3.33 17.99 10.16 -2.52 14.06 -9.95 
0.0 0.0 0.0 27.62 14.38 63.9 14.28 22.24 31.89 14.13 19.01 36.16 -171.8 -170.01 -140.71 -145.47 -136.9 -143.67 81.59 -82.74 139.24 -35.77 15.72 -68.65 -123.8 124.12 -45.35 -98.41 97.26 -40.76 -13.96 -3.55 -104.01 -129.22 -114.48 -150.84 -15.84 34.79 -22.22 3.71 18.14 11.18 -2.54 13.98 -10.09 
0.0 0.0 0.0 27.76 15.07 62.91 13.91 20.35 33.73 14.13 19.54 35.34 -172.03 -170.55 -139.94 -144.11 -139.65 -139.58 82.96 -83.5 137.34 -34.02 14.96 -68.41 -119.4 121.67 -47.6 -97.04 96.5 -42.66 -13.94 -8.23 -120.23 -134.3 -114.35 -155.12 -16.45 33.27 -24.23 4.08 17.75 12.57 -1.24 14.24 -4.87 
0.0 0.0 0.0 27.0 15.27 61.82 13.11 18.47 34.88 14.3 19.71 35.42 -172.23 -171.15 -138.76 -142.55 -138.07 -139.54 84.24 -83.6 132.0 -30.89 9.56 -74.28 -115.56 127.59 -58.15 -95.76 96.4 -48.0 -15.88 -12.2 -127.23 -140.81 -107.58 -165.52 -18.61 30.76 -29.49 4.63 16.23 15.55 -0.88 14.5 -3.4 
0.0 0.0 0.0 25.64 13.55 63.34 12.79 16.09 38.19 14.39 19.22 36.35 -172.48 -172.31 -135.65 -140.05 -139.95 -135.1 86.61 -85.46 126.68 -27.68 0.9 -88.28 -111.71 146.77 -75.38 -93.39 94.54 -53.32 -16.72 -12.34 -126.06 -151.08 -105.47 -171.3 -20.1 27.16 -35.5 5.08 15.67 17.6 -0.47 15.1 -1.74 
0.0 0.0 0.0 25.36 14.52 61.35 12.43 14.99 39.46 14.49 19.82 35.64 -172.64 -172.76 -134.51 -140.71 -139.56 -136.17 87.05 -85.89 125.61 -29.4 -0.63 -91.11 -110.63 165.13 -84.29 -92.95 94.11 -54.39 -18.91 -15.32 -128.65 -152.93 -103.36 -173.08 -20.74 26.4 -37.34 5.51 14.9 19.91 -0.65 15.48 -2.36 
0.0 0.0 0.0 25.02 15.67 58.99 11.89 14.4 39.35 14.5 20.01 35.38 -172.79 -172.79 -134.99 -141.94 -139.39 -137.59 87.09 -85.78 124.57 -30.53 -0.56 -90.95 -110.03 155.51 -80.57 -92.91 94.22 -55.43 -19.79 -18.1 -132.25 -161.9 -103.0 -175.69 -21.45 26.11 -38.73 5.7 15.72 19.54 -0.7 15.91 -2.44 
0.0 0.0 0.0 24.24 15.79 57.86 11.21 12.48 41.84 14.54 20.04 35.41 -172.92 -173.12 -134.18 -144.55 -137.56 -142.1 87.66 -86.22 121.76 -27.51 -3.75 -97.17 -106.88 172.86 -87.82 -92.34 93.78 -58.24 -19.53 -18.03 -132.54 -163.27 -103.25 -175.95 -22.43 24.58 -42.06 5.86 16.38 19.26 0.21 17.12 0.69 
0.0 0.0 0.0 23.85 15.02 58.75 10.36 10.54 44.51 14.64 20.13 35.47 -173.05 -173.67 -132.34 -144.87 -137.96 -142.03 88.2 -86.82 119.4 -26.62 -5.93 -101.71 -105.0 174.55 -88.54 -91.8 93.18 -60.6 -19.41 -16.57 -130.19 -162.0 -103.45 -175.56 -22.8 22.76 -45.05 5.99 16.48 19.51 1.12 17.78 3.47 
0.0 0.0 0.0 23.36 15.14 57.94 10.0 9.22 47.37 14.01 19.5 35.17 -173.85 -174.24 -133.13 -143.09 -139.38 -138.79 88.2 -86.83 119.51 -27.6 -3.84 -97.32 -105.09 179.99 -90.0 -91.8 93.17 -60.49 -21.22 -16.25 -126.9 -159.69 -104.08 -174.69 -23.27 22.19 -46.5 6.03 16.58 19.54 1.62 18.28 4.88 
0.0 0.0 0.0 22.96 14.65 58.32 9.2 8.56 47.11 13.23 18.83 34.57 -174.09 -174.77 -131.53 -142.42 -139.08 -138.4 87.94 -86.26 118.77 -26.91 -4.3 -98.42 -105.12 175.9 -88.89 -92.06 93.74 -61.23 -21.48 -16.53 -127.03 -158.83 -104.81 -174.15 -23.61 21.37 -48.16 6.01 16.86 19.16 1.88 18.9 5.49 
0.0 0.0 0.0 22.82 14.05 59.26 8.49 7.49 48.63 13.03 17.84 35.71 -174.13 -175.11 -129.77 -142.71 -137.67 -140.1 87.44 -85.21 118.08 -26.59 -6.23 -102.3 -105.89 -167.39 -93.64 -92.56 94.79 -61.92 -21.65 -16.83 -127.31 -158.74 -103.46 -174.68 -23.79 20.76 -49.31 5.93 16.89 18.88 2.05 18.99 5.94 
0.0 0.0 0.0 22.86 13.89 59.61 8.05 6.77 50.0 12.93 17.48 36.08 -174.18 -175.39 -128.33 -142.36 -136.84 -140.57 86.96 -84.36 118.27 -26.59 -6.87 -103.54 -105.77 -160.5 -95.71 -93.04 95.64 -61.73 -21.68 -17.14 -127.8 -158.81 -102.82 -174.96 -23.64 20.54 -49.43 5.51 16.75 17.77 2.32 19.06 6.69 
0.0 0.0 0.0 22.74 13.64 59.93 7.59 6.54 49.31 12.92 17.04 36.8 -174.25 -175.68 -126.88 -142.67 -135.49 -142.19 86.51 -83.58 118.44 -26.27 -7.26 -104.47 -105.2 -163.81 -94.51 -93.49 96.42 -61.56 -21.85 -17.73 -128.58 -160.78 -101.72 -175.86 -23.62 20.37 -49.67 5.1 16.68 16.58 2.14 19.04 6.18 
0.0 0.0 0.0 22.6 13.63 59.78 7.29 6.27 49.36 12.67 17.23 35.93 -174.52 -176.32 -123.82 -141.85 -135.12 -141.74 86.19 -83.27 119.41 -26.08 -6.8 -103.69 -103.53 -165.42 -93.58 -93.81 96.73 -60.59 -22.31 -16.7 -126.17 -153.58 -100.05 -174.97 -23.68 20.29 -49.86 4.6 15.58 16.11 2.11 18.4 6.31 
0.0 0.0 0.0 22.47 13.67 59.55 7.0 6.03 49.3 12.32 16.79 35.89 -175.05 -177.41 -117.57 -140.47 -135.13 -140.34 85.4 -82.49 121.36 -24.79 -6.77 -104.43 -101.62 -163.28 -93.53 -94.6 97.51 -58.64 -23.31 -14.71 -121.36 -133.68 -99.03 -170.55 -23.69 20.28 -49.89 4.2 14.25 16.12 2.02 17.17 6.5 
